<?xml version="1.0" ?>
<!DOCTYPE svg  PUBLIC '-//W3C//DTD SVG 1.1//EN'  'http://www.w3.org/Graphics/SVG/1.1/DTD/svg11.dtd'>
<svg enable-background="new 0 0 24 24" height="24px" id="Layer_1" version="1.1" viewBox="0 0 24 24" width="24px" xml:space="preserve" xmlns="http://www.w3.org/2000/svg" xmlns:xlink="http://www.w3.org/1999/xlink">
	<g>
		<path fill="white" d="M12,5.6c-2.8,0-5,2.3-5,5v2.4c0,2.8,2.3,5,5,5c0.3,0,0.6,0,0.9-0.1c-0.2-0.4-0.5-0.7-1-0.7c-0.3,0-0.5-0.2-0.5-0.5   c0-0.3,0.2-0.5,0.5-0.5c0.9,0,1.7,0.6,2,1.4c1.9-0.7,3.2-2.5,3.2-4.7v-2.4C17,7.8,14.8,5.6,12,5.6z"/>
		<path fill="white" d="M19.7,0.5H4.3c-2.1,0-3.8,1.7-3.8,3.8v15.4c0,2.1,1.7,3.8,3.8,3.8h15.4c2.1,0,3.8-1.7,3.8-3.8V4.3   C23.5,2.2,21.8,0.5,19.7,0.5z M18,12.9c0,2.6-1.7,4.8-4,5.7c0.1,0.4,0.5,0.8,1,0.8c0.3,0,0.5,0.2,0.5,0.5c0,0.3-0.2,0.5-0.5,0.5   c-0.9,0-1.7-0.6-2-1.5c-0.3,0.1-0.7,0.1-1,0.1c-3.3,0-6-2.7-6-6v-2.4c0-3.3,2.7-6,6-6c3.3,0,6,2.7,6,6V12.9z"/>
	</g>
</svg>
